<svg width="320" height="240" viewBox="0 0 320 240" fill="none" xmlns="http://www.w3.org/2000/svg">
  <rect width="320" height="240" rx="28" fill="url(#bg)"/>
  <rect x="32" y="34" width="256" height="54" rx="18" fill="white" fill-opacity="0.96"/>
  <circle cx="58" cy="61" r="10" fill="#38BDF8"/>
  <rect x="78" y="53" width="124" height="8" rx="4" fill="#CBD5E1"/>
  <rect x="78" y="66" width="86" height="8" rx="4" fill="#E2E8F0"/>
  <rect x="42" y="108" width="112" height="98" rx="22" fill="white" fill-opacity="0.95"/>
  <rect x="166" y="108" width="112" height="98" rx="22" fill="white" fill-opacity="0.95"/>
  <circle cx="98" cy="144" r="22" fill="#DBEAFE"/>
  <path d="M89 144h18M98 135v18" stroke="#2563EB" stroke-width="4" stroke-linecap="round"/>
  <rect x="70" y="176" width="56" height="8" rx="4" fill="#CBD5E1"/>
  <circle cx="222" cy="144" r="22" fill="#E0F2FE"/>
  <path d="M214 145l6 6 12-12" stroke="#0EA5E9" stroke-width="4" stroke-linecap="round" stroke-linejoin="round"/>
  <rect x="194" y="176" width="56" height="8" rx="4" fill="#CBD5E1"/>
  <defs>
    <linearGradient id="bg" x1="22" y1="16" x2="287" y2="232" gradientUnits="userSpaceOnUse">
      <stop stop-color="#EFF6FF"/>
      <stop offset="1" stop-color="#DBEAFE"/>
    </linearGradient>
  </defs>
</svg>